<svg preserveAspectRatio="none" width="100%" height="100%" overflow="visible" style="display: block;" viewBox="0 0 164 22" fill="none" xmlns="http://www.w3.org/2000/svg">
<path id="Union" d="M24.7002 11.0479H17.5547L9.87988 17.4658H21.8105L26.4092 11.8457H35.2021L26.5957 22H0L10.2842 11.0479H17.5547L24.8867 4.62988H12.6455L9.125 8.97168H1.18066L8.1709 0H34.8604L24.7002 11.0479ZM136.604 7.04492C137.149 7.04494 137.69 7.10948 138.229 7.23926C138.769 7.36904 139.261 7.58432 139.707 7.88379C140.153 8.17831 140.512 8.57971 140.781 9.08887C141.056 9.59795 141.192 10.2345 141.192 10.998V18.6963H138.634V17.1162H138.546C138.384 17.4357 138.155 17.7351 137.861 18.0146C137.572 18.2891 137.207 18.5119 136.766 18.6816C136.33 18.8462 135.817 18.9287 135.229 18.9287C134.514 18.9287 133.868 18.7986 133.295 18.5391C132.726 18.2745 132.276 17.8851 131.942 17.3711C131.614 16.8569 131.449 16.2225 131.449 15.4688C131.449 14.82 131.568 14.2836 131.803 13.8594C132.038 13.4352 132.359 13.0954 132.766 12.8408C133.172 12.5863 133.631 12.3935 134.141 12.2637C134.655 12.1289 135.187 12.0316 135.736 11.9717C136.398 11.9018 136.935 11.8401 137.347 11.7852C137.758 11.7253 138.058 11.6354 138.244 11.5156C138.435 11.3908 138.531 11.1981 138.531 10.9385V10.8936C138.531 10.3295 138.367 9.89249 138.038 9.58301C137.71 9.27365 137.237 9.11916 136.619 9.11914C135.967 9.11914 135.45 9.26417 135.067 9.55371C134.69 9.84319 134.435 10.1849 134.303 10.5791L131.817 10.2197C132.013 9.52089 132.337 8.937 132.788 8.46777C133.239 7.99355 133.79 7.63892 134.442 7.4043C135.094 7.16468 135.815 7.04492 136.604 7.04492ZM67.6387 7.04492C68.3348 7.04493 68.9917 7.16003 69.6094 7.38965C70.2319 7.61429 70.7814 7.96331 71.2568 8.4375C71.7372 8.91172 72.1142 9.51625 72.3887 10.25C72.6631 10.9788 72.8008 11.8472 72.8008 12.8555V13.6865H64.9346C64.9424 14.3268 65.0608 14.8787 65.293 15.3418C65.5331 15.8158 65.8687 16.18 66.2998 16.4346C66.7312 16.6842 67.237 16.8096 67.8154 16.8096C68.2024 16.8095 68.5527 16.7542 68.8662 16.6445C69.18 16.5297 69.4522 16.3622 69.6826 16.1426C69.913 15.9229 70.0874 15.6507 70.2051 15.3262L72.6904 15.6113C72.5335 16.2802 72.2341 16.8641 71.793 17.3633C71.3567 17.8574 70.7976 18.2421 70.1162 18.5166C69.4349 18.7861 68.6556 18.9209 67.7783 18.9209C66.6461 18.9209 65.6682 18.6812 64.8447 18.2021C64.0261 17.7179 63.3953 17.034 62.9541 16.1504C62.5129 15.2618 62.293 14.2157 62.293 13.0127C62.293 11.8296 62.5129 10.791 62.9541 9.89746C63.4002 8.99894 64.0232 8.29997 64.8223 7.80078C65.6213 7.29666 66.5603 7.04492 67.6387 7.04492ZM124.979 7.04492C125.676 7.04495 126.333 7.16005 126.95 7.38965C127.573 7.61426 128.121 7.96348 128.597 8.4375C129.077 8.91174 129.455 9.51617 129.729 10.25C130.004 10.9788 130.142 11.8472 130.142 12.8555V13.6865H122.274C122.282 14.3268 122.402 14.8787 122.634 15.3418C122.874 15.8158 123.209 16.18 123.641 16.4346C124.072 16.6841 124.577 16.8095 125.155 16.8096C125.542 16.8096 125.893 16.7543 126.207 16.6445C126.521 16.5297 126.793 16.3622 127.023 16.1426C127.254 15.9229 127.428 15.6506 127.546 15.3262L130.031 15.6113C129.874 16.2802 129.575 16.8641 129.134 17.3633C128.697 17.8575 128.138 18.242 127.457 18.5166C126.776 18.7861 125.996 18.9209 125.119 18.9209C123.987 18.9209 123.008 18.6814 122.185 18.2021C121.366 17.7179 120.736 17.0339 120.295 16.1504C119.854 15.2618 119.634 14.2158 119.634 13.0127C119.634 11.8296 119.854 10.791 120.295 9.89746C120.741 8.99898 121.364 8.29995 122.163 7.80078C122.962 7.29672 123.901 7.04492 124.979 7.04492ZM159.213 7.04492C160.536 7.04492 161.578 7.33218 162.338 7.90625C163.103 8.48028 163.576 9.25607 163.758 10.2344L161.331 10.5039C161.262 10.2545 161.142 10.0202 160.971 9.80078C160.804 9.58113 160.578 9.40334 160.294 9.26855C160.01 9.13382 159.662 9.06643 159.25 9.06641C158.696 9.06641 158.23 9.18899 157.853 9.43359C157.48 9.6782 157.296 9.99542 157.301 10.3848C157.296 10.7191 157.416 10.9916 157.661 11.2012C157.911 11.4108 158.323 11.583 158.896 11.7178L160.823 12.1367C161.892 12.3713 162.686 12.7428 163.206 13.252C163.731 13.7611 163.995 14.4283 164 15.252C163.995 15.9757 163.787 16.6149 163.375 17.1689C162.968 17.7179 162.402 18.1476 161.677 18.457C160.951 18.7665 160.117 18.9209 159.176 18.9209C157.794 18.9208 156.681 18.6261 155.838 18.0371C154.995 17.4431 154.492 16.6169 154.33 15.5586L156.926 15.3037C157.043 15.8227 157.294 16.2149 157.676 16.4795C158.058 16.7441 158.556 16.877 159.169 16.877C159.801 16.8769 160.309 16.7441 160.691 16.4795C161.078 16.215 161.271 15.8882 161.271 15.499C161.271 15.1696 161.146 14.8973 160.896 14.6826C160.651 14.4681 160.269 14.3033 159.75 14.1885L157.823 13.7764C156.74 13.5468 155.939 13.1602 155.419 12.6162C154.899 12.0671 154.642 11.3728 154.646 10.5342C154.642 9.82537 154.831 9.21152 155.213 8.69238C155.6 8.16823 156.137 7.76404 156.823 7.47949C157.514 7.18996 158.311 7.04493 159.213 7.04492ZM60.626 5.09082L52.9121 16.3672H60.6699V18.6963H49.5225V16.9668L57.2432 5.68945H49.4785V3.36035H60.626V5.09082ZM80.6826 7.04492C81.462 7.04492 82.1413 7.21432 82.7197 7.55371C83.3031 7.89317 83.7546 8.38533 84.0732 9.0293C84.3967 9.67321 84.5557 10.4547 84.5508 11.373V18.6963H81.8887V11.792C81.8886 11.0233 81.6929 10.4216 81.3008 9.9873C80.9136 9.5531 80.3766 9.33599 79.6904 9.33594C79.2247 9.33594 78.81 9.44073 78.4473 9.65039C78.0894 9.85506 77.8074 10.1526 77.6016 10.542C77.4007 10.9313 77.3008 11.4031 77.3008 11.957V18.6963H74.6387V7.19434H77.1826V9.14941H77.3154C77.5752 8.50554 77.9891 7.99363 78.5576 7.61426C79.1311 7.23491 79.8396 7.04496 80.6826 7.04492ZM103.036 5.68945H98.3818V18.6963H95.6758V5.68945H91.0205V3.36035H103.036V5.68945ZM107.365 15.2812H107.468L109.497 7.19434H112.182L114.211 15.2363H114.321L116.277 7.19434H118.998L115.799 18.6963H113.027L110.909 10.9238H110.755L108.637 18.6963H105.857L102.666 7.19434H105.379L107.365 15.2812ZM146.117 11.8145H146.301L150.36 7.19434H153.471L149.091 12.1592L153.728 18.6963H150.544L147.085 13.7725L146.117 14.8291V18.6963H143.455V3.36035H146.117V11.8145ZM138.538 13.2148C138.455 13.2847 138.312 13.3493 138.111 13.4092C137.915 13.469 137.695 13.5225 137.45 13.5674C137.205 13.6123 136.962 13.6516 136.722 13.6865C136.482 13.7215 136.273 13.7514 136.097 13.7764C135.7 13.8313 135.344 13.9211 135.03 14.0459C134.717 14.1707 134.469 14.3458 134.288 14.5703C134.107 14.7899 134.016 15.0744 134.016 15.4238C134.016 15.923 134.195 16.3001 134.553 16.5547C134.911 16.8093 135.367 16.9365 135.921 16.9365C136.455 16.9365 136.918 16.8289 137.311 16.6143C137.703 16.3946 138.004 16.1054 138.215 15.7461C138.431 15.3867 138.538 14.9946 138.538 14.5703V13.2148ZM67.6758 9.15625C67.1316 9.15625 66.653 9.29098 66.2412 9.56055C65.8294 9.82512 65.5087 10.1751 65.2783 10.6094C65.0772 10.9923 64.9641 11.4089 64.9385 11.8594H70.249C70.2441 11.3404 70.1336 10.8789 69.918 10.4746C69.7023 10.0653 69.4009 9.7434 69.0137 9.50879C68.6314 9.27423 68.1854 9.15632 67.6758 9.15625ZM125.016 9.15625C124.472 9.15631 123.994 9.29108 123.582 9.56055C123.17 9.82512 122.85 10.1751 122.619 10.6094C122.418 10.9923 122.305 11.4089 122.279 11.8594H127.59C127.585 11.3404 127.474 10.8788 127.259 10.4746C127.043 10.0654 126.742 9.7434 126.354 9.50879C125.972 9.27416 125.525 9.15625 125.016 9.15625Z" fill="var(--fill-0, #40DAFE)"/>
</svg>
