<svg preserveAspectRatio="none" width="100%" height="100%" overflow="visible" style="display: block;" viewBox="0 0 169.222 22.6885" fill="none" xmlns="http://www.w3.org/2000/svg">
<path id="Union" d="M25.4863 11.3936H18.1133L10.1943 18.0127H22.5049L27.25 12.2168H36.3223L27.4424 22.6885H0L10.6113 11.3936H18.1133L25.6787 4.77441H13.0479L9.41504 9.25293H1.21777L8.43164 0H35.9697L25.4863 11.3936ZM140.953 7.26562C141.514 7.26562 142.074 7.33204 142.63 7.46582C143.186 7.59968 143.695 7.82196 144.155 8.13086C144.616 8.43461 144.985 8.84894 145.263 9.37402C145.546 9.8991 145.688 10.5552 145.688 11.3428V19.2822H143.048V17.6523H142.957C142.79 17.9818 142.554 18.2908 142.251 18.5791C141.953 18.8623 141.575 19.0916 141.12 19.2666C140.67 19.4364 140.141 19.5215 139.534 19.5215C138.796 19.5214 138.131 19.3868 137.539 19.1191C136.952 18.8463 136.487 18.4453 136.143 17.915C135.804 17.3848 135.635 16.7305 135.635 15.9531C135.635 15.2839 135.756 14.7305 135.999 14.293C136.242 13.8554 136.573 13.5057 136.993 13.2432C137.413 12.9806 137.886 12.7823 138.412 12.6484C138.943 12.5095 139.492 12.4084 140.059 12.3467C140.741 12.2746 141.295 12.2109 141.72 12.1543C142.145 12.0925 142.453 11.9995 142.646 11.876C142.843 11.7473 142.941 11.5489 142.941 11.2812V11.2354C142.941 10.6536 142.772 10.203 142.433 9.88379C142.094 9.56463 141.606 9.40432 140.969 9.4043C140.296 9.4043 139.763 9.55409 139.368 9.85254C138.979 10.1511 138.715 10.5035 138.578 10.9102L136.014 10.54C136.216 9.81927 136.55 9.21637 137.016 8.73242C137.481 8.24343 138.05 7.87768 138.723 7.63574C139.395 7.38867 140.139 7.26566 140.953 7.26562ZM69.792 7.26562C70.5102 7.26562 71.1879 7.3843 71.8252 7.62109C72.4676 7.85277 73.0347 8.21305 73.5254 8.70215C74.0209 9.1911 74.4102 9.81385 74.6934 10.5703C74.9766 11.3219 75.1181 12.218 75.1182 13.2578V14.1152H67.002C67.01 14.7755 67.1326 15.3447 67.3721 15.8223C67.6199 16.3112 67.9662 16.6867 68.4111 16.9492C68.8563 17.2066 69.3777 17.3359 69.9746 17.3359C70.374 17.3359 70.736 17.2792 71.0596 17.166C71.3832 17.0476 71.6637 16.8749 71.9014 16.6484C72.1391 16.4219 72.319 16.1413 72.4404 15.8066L75.0049 16.0996C74.843 16.7895 74.5343 17.3924 74.0791 17.9072C73.6289 18.4169 73.0517 18.8135 72.3486 19.0967C71.6457 19.3746 70.8417 19.5136 69.9365 19.5137C68.7683 19.5137 67.7589 19.2665 66.9092 18.7725C66.0645 18.2731 65.4142 17.5674 64.959 16.6562C64.5037 15.7398 64.2764 14.6607 64.2764 13.4199C64.2764 12.2 64.5038 11.1294 64.959 10.208C65.4192 9.28145 66.0614 8.56072 66.8857 8.0459C67.7102 7.52592 68.6792 7.26563 69.792 7.26562ZM128.958 7.26562C129.676 7.26562 130.354 7.38434 130.991 7.62109C131.634 7.85277 132.201 8.21305 132.691 8.70215C133.187 9.19111 133.576 9.81383 133.859 10.5703C134.143 11.3219 134.284 12.218 134.284 13.2578V14.1152H126.168C126.176 14.7755 126.299 15.3447 126.538 15.8223C126.786 16.3111 127.132 16.6867 127.577 16.9492C128.022 17.2066 128.544 17.3359 129.141 17.3359C129.54 17.3359 129.902 17.2793 130.226 17.166C130.549 17.0476 130.83 16.8749 131.067 16.6484C131.305 16.4219 131.485 16.1413 131.606 15.8066L134.171 16.0996C134.009 16.7895 133.7 17.3924 133.245 17.9072C132.795 18.4168 132.219 18.8135 131.516 19.0967C130.813 19.3747 130.008 19.5137 129.103 19.5137C127.934 19.5137 126.925 19.2666 126.075 18.7725C125.23 18.2731 124.58 17.5675 124.125 16.6562C123.67 15.7398 123.442 14.6607 123.442 13.4199C123.442 12.2 123.67 11.1294 124.125 10.208C124.585 9.2815 125.228 8.56071 126.052 8.0459C126.876 7.52595 127.845 7.26566 128.958 7.26562ZM164.282 7.26562C165.648 7.26567 166.723 7.5613 167.507 8.15332C168.296 8.74538 168.784 9.5466 168.971 10.5557L166.467 10.833C166.396 10.5758 166.273 10.3338 166.096 10.1074C165.924 9.88098 165.691 9.69856 165.397 9.55957C165.104 9.42061 164.745 9.35064 164.32 9.35059C163.749 9.35059 163.267 9.47625 162.878 9.72852C162.494 9.98079 162.305 10.3084 162.31 10.71C162.305 11.0548 162.428 11.3356 162.681 11.5518C162.939 11.768 163.364 11.945 163.956 12.084L165.943 12.5166C167.046 12.7586 167.866 13.1428 168.402 13.668C168.943 14.193 169.217 14.8803 169.222 15.7295C169.217 16.4759 169.001 17.1346 168.576 17.7061C168.156 18.2724 167.572 18.715 166.823 19.0342C166.075 19.3533 165.215 19.5137 164.244 19.5137C162.818 19.5137 161.669 19.21 160.799 18.6025C159.929 17.9899 159.411 17.1373 159.244 16.0459L161.922 15.7832C162.043 16.3186 162.302 16.7232 162.696 16.9961C163.091 17.2689 163.604 17.4053 164.236 17.4053C164.889 17.4053 165.412 17.2688 165.807 16.9961C166.206 16.7233 166.406 16.3859 166.406 15.9844C166.406 15.6446 166.277 15.3639 166.02 15.1426C165.767 14.9212 165.372 14.7512 164.836 14.6328L162.848 14.208C161.73 13.9712 160.903 13.5719 160.367 13.0107C159.831 12.4444 159.565 11.7292 159.57 10.8643C159.565 10.1333 159.76 9.50021 160.154 8.96484C160.554 8.42427 161.108 8.00732 161.816 7.71387C162.53 7.41531 163.352 7.26562 164.282 7.26562ZM62.5557 5.25L54.5967 16.8799H62.6016V19.2822H51.0986V17.498L59.0654 5.86816H51.0537V3.46582H62.5557V5.25ZM83.252 7.26562C84.0561 7.26567 84.7567 7.44097 85.3535 7.79102C85.9552 8.14101 86.4203 8.64775 86.749 9.31152C87.0829 9.97566 87.2472 10.7822 87.2422 11.7295V19.2822H84.4961V12.1611C84.496 11.3685 84.2932 10.7486 83.8887 10.3008C83.4891 9.85292 82.9356 9.62895 82.2275 9.62891C81.747 9.62891 81.3196 9.73694 80.9453 9.95312C80.5761 10.1642 80.2847 10.4705 80.0723 10.8721C79.865 11.2735 79.7618 11.7599 79.7617 12.3311V19.2822H77.0146V7.41992H79.6396V9.43555H79.7764C80.0444 8.7715 80.472 8.2438 81.0586 7.85254C81.6504 7.46126 82.3819 7.26562 83.252 7.26562ZM106.316 5.86816H101.514V19.2822H98.7217V5.86816H93.9189V3.46582H106.316V5.86816ZM110.783 15.7607H110.89L112.983 7.41992H115.753L117.847 15.7139H117.961L119.979 7.41992H122.786L119.485 19.2822H116.625L114.44 11.2656H114.281L112.096 19.2822H109.228L105.935 7.41992H108.734L110.783 15.7607ZM150.77 12.1846H150.959L155.147 7.41992H158.356L153.838 12.5391L158.622 19.2822H155.337L151.768 14.2041L150.77 15.2939V19.2822H148.022V3.46582H150.77V12.1846ZM142.949 13.6289C142.863 13.701 142.716 13.7683 142.509 13.8301C142.307 13.8918 142.079 13.9459 141.826 13.9922C141.573 14.0385 141.323 14.0792 141.075 14.1152C140.827 14.1513 140.612 14.1823 140.43 14.208C140.02 14.2646 139.654 14.3577 139.33 14.4863C139.006 14.615 138.751 14.7948 138.563 15.0264C138.376 15.2529 138.282 15.5468 138.282 15.9072C138.282 16.422 138.468 16.8107 138.837 17.0732C139.206 17.3357 139.677 17.4668 140.248 17.4668C140.799 17.4668 141.277 17.3561 141.682 17.1348C142.086 16.9083 142.398 16.6099 142.615 16.2393C142.838 15.8686 142.949 15.464 142.949 15.0264V13.6289ZM69.8301 9.44336C69.2686 9.44336 68.7755 9.58238 68.3506 9.86035C67.9257 10.1332 67.5942 10.4935 67.3564 10.9414C67.1488 11.3365 67.0322 11.7666 67.0059 12.2314H72.4854C72.4803 11.6962 72.367 11.2197 72.1445 10.8027C71.922 10.3806 71.6104 10.0486 71.2109 9.80664C70.8164 9.56469 70.3561 9.44338 69.8301 9.44336ZM128.996 9.44336C128.435 9.44337 127.941 9.58235 127.517 9.86035C127.092 10.1332 126.76 10.4935 126.522 10.9414C126.315 11.3365 126.198 11.7666 126.172 12.2314H131.651C131.646 11.6962 131.533 11.2197 131.311 10.8027C131.088 10.3806 130.777 10.0486 130.377 9.80664C129.982 9.56467 129.522 9.44336 128.996 9.44336Z" fill="var(--fill-0, #40DAFE)"/>
</svg>
