<svg preserveAspectRatio="none" width="100%" height="100%" overflow="visible" style="display: block;" viewBox="0 0 163 22" fill="none" xmlns="http://www.w3.org/2000/svg">
<g id="Vector">
<path d="M26.2482 11.8462H34.9873L26.4335 22H0L10.2213 11.0479H17.4473L24.735 4.6299H12.5682L9.06908 8.97242H1.17345L8.12149 0H34.6476L24.5498 11.0479H17.4473L9.81991 17.4659H21.6779L26.2482 11.8462Z" fill="#40DAFE"/>
<path d="M49.2203 18.6965V16.9668L56.8943 5.6898H49.1765V3.36102H60.2562V5.09075L52.5896 16.3677H60.3V18.6965H49.2203Z" fill="var(--fill-0, #40DAFE)"/>
<path d="M67.365 18.9211C66.2395 18.9211 65.2675 18.6815 64.4489 18.2023C63.6352 17.7181 63.0091 17.0341 62.5706 16.1506C62.1321 15.262 61.9129 14.2162 61.9129 13.0131C61.9129 11.83 62.1321 10.7916 62.5706 9.89806C63.014 8.9995 63.6328 8.30062 64.427 7.80142C65.2212 7.29722 66.1542 7.04513 67.2262 7.04513C67.918 7.04513 68.5709 7.15994 69.1848 7.38958C69.8036 7.61422 70.3493 7.96366 70.8219 8.4379C71.2994 8.91214 71.6746 9.51617 71.9474 10.25C72.2203 10.9788 72.3567 11.8474 72.3567 12.8558V13.687H63.1553V11.8599H69.8207C69.8158 11.3408 69.7062 10.879 69.4918 10.4746C69.2774 10.0653 68.9778 9.74331 68.5928 9.50869C68.2128 9.27406 67.7694 9.15675 67.2627 9.15675C66.7219 9.15675 66.2468 9.29153 65.8375 9.5611C65.4283 9.82568 65.1091 10.1751 64.8801 10.6094C64.656 11.0387 64.5415 11.5105 64.5366 12.0247V13.6196C64.5366 14.2885 64.656 14.8626 64.8947 15.3419C65.1335 15.8161 65.4672 16.1805 65.896 16.4351C66.3248 16.6847 66.8266 16.8095 67.4016 16.8095C67.7865 16.8095 68.1348 16.7546 68.4467 16.6448C68.7585 16.53 69.0289 16.3627 69.2579 16.1431C69.4869 15.9234 69.6599 15.6514 69.7768 15.3269L72.2471 15.6114C72.0912 16.2804 71.794 16.8644 71.3555 17.3636C70.9218 17.8578 70.3664 18.2422 69.6891 18.5168C69.0119 18.7863 68.2372 18.9211 67.365 18.9211Z" fill="var(--fill-0, #40DAFE)"/>
<path d="M76.829 11.9573V18.6965H74.1833V7.19489H76.7121V9.14926H76.8436C77.1019 8.50529 77.5136 7.99361 78.0788 7.61422C78.6488 7.23482 79.3529 7.04513 80.1909 7.04513C80.9656 7.04513 81.6404 7.21486 82.2154 7.55431C82.7952 7.89377 83.2434 8.38548 83.5601 9.02945C83.8817 9.67342 84.0401 10.4547 84.0352 11.3732V18.6965H81.3895V11.7925C81.3895 11.0238 81.1946 10.4222 80.8048 9.98792C80.4199 9.55361 79.8864 9.33646 79.2043 9.33646C78.7414 9.33646 78.3297 9.44129 77.9691 9.65096C77.6135 9.85563 77.3333 10.1527 77.1287 10.542C76.9289 10.9314 76.829 11.4032 76.829 11.9573Z" fill="var(--fill-0, #40DAFE)"/>
<path d="M90.4657 5.6898V3.36102H102.408V5.6898H97.7815V18.6965H95.0919V5.6898H90.4657Z" fill="var(--fill-0, #40DAFE)"/>
<path d="M105.212 18.6965L102.04 7.19489H104.737L106.71 15.2819H106.812L108.83 7.19489H111.497L113.514 15.237H113.624L115.568 7.19489H118.272L115.093 18.6965H112.338L110.233 10.9239H110.079L107.974 18.6965H105.212Z" fill="var(--fill-0, #40DAFE)"/>
<path d="M124.356 18.9211C123.23 18.9211 122.258 18.6815 121.44 18.2023C120.626 17.7181 120 17.0341 119.562 16.1506C119.123 15.262 118.904 14.2162 118.904 13.0131C118.904 11.83 119.123 10.7916 119.562 9.89806C120.005 8.9995 120.624 8.30062 121.418 7.80142C122.212 7.29722 123.145 7.04513 124.217 7.04513C124.909 7.04513 125.562 7.15994 126.176 7.38958C126.795 7.61422 127.34 7.96366 127.813 8.4379C128.29 8.91214 128.666 9.51617 128.938 10.25C129.211 10.9788 129.348 11.8474 129.348 12.8558V13.687H120.146V11.8599H126.812C126.807 11.3408 126.697 10.879 126.483 10.4746C126.268 10.0653 125.969 9.74331 125.584 9.50869C125.204 9.27406 124.76 9.15675 124.254 9.15675C123.713 9.15675 123.238 9.29153 122.829 9.5611C122.419 9.82568 122.1 10.1751 121.871 10.6094C121.647 11.0387 121.532 11.5105 121.528 12.0247V13.6196C121.528 14.2885 121.647 14.8626 121.886 15.3419C122.124 15.8161 122.458 16.1805 122.887 16.4351C123.316 16.6847 123.818 16.8095 124.393 16.8095C124.777 16.8095 125.126 16.7546 125.438 16.6448C125.749 16.53 126.02 16.3627 126.249 16.1431C126.478 15.9234 126.651 15.6514 126.768 15.3269L129.238 15.6114C129.082 16.2804 128.785 16.8644 128.346 17.3636C127.913 17.8578 127.357 18.2422 126.68 18.5168C126.003 18.7863 125.228 18.9211 124.356 18.9211Z" fill="var(--fill-0, #40DAFE)"/>
<path d="M134.405 18.9286C133.693 18.9286 133.053 18.7988 132.483 18.5392C131.917 18.2747 131.469 17.8853 131.138 17.3711C130.811 16.8569 130.648 16.2229 130.648 15.4691C130.648 14.8202 130.765 14.2835 130.999 13.8592C131.233 13.4349 131.552 13.0954 131.956 12.8409C132.361 12.5863 132.816 12.3941 133.323 12.2643C133.835 12.1295 134.363 12.0321 134.909 11.9722C135.567 11.9024 136.1 11.84 136.51 11.785C136.919 11.7251 137.216 11.6353 137.401 11.5155C137.591 11.3907 137.686 11.1985 137.686 10.9389V10.894C137.686 10.3299 137.523 9.89307 137.197 9.58357C136.87 9.27406 136.4 9.11931 135.786 9.11931C135.138 9.11931 134.624 9.26408 134.244 9.55361C133.869 9.84315 133.615 10.1851 133.484 10.5795L131.014 10.22C131.208 9.52117 131.53 8.9371 131.978 8.46785C132.427 7.99361 132.975 7.63918 133.623 7.40455C134.271 7.16494 134.987 7.04513 135.771 7.04513C136.312 7.04513 136.851 7.11002 137.387 7.23982C137.923 7.36961 138.412 7.58426 138.856 7.88379C139.299 8.17831 139.655 8.58017 139.923 9.08936C140.195 9.59854 140.332 10.235 140.332 10.9988V18.6965H137.789V17.1165H137.701C137.54 17.436 137.313 17.7355 137.021 18.0151C136.734 18.2896 136.371 18.5118 135.932 18.6815C135.499 18.8462 134.989 18.9286 134.405 18.9286ZM135.092 16.9368C135.623 16.9368 136.083 16.8295 136.473 16.6148C136.863 16.3952 137.162 16.1056 137.372 15.7462C137.586 15.3868 137.693 14.9949 137.693 14.5706V13.2153C137.611 13.2851 137.469 13.35 137.27 13.4099C137.075 13.4698 136.855 13.5223 136.612 13.5672C136.368 13.6121 136.127 13.6521 135.888 13.687C135.65 13.7219 135.442 13.7519 135.267 13.7769C134.872 13.8318 134.519 13.9216 134.207 14.0464C133.896 14.1712 133.649 14.3459 133.469 14.5706C133.289 14.7902 133.199 15.0748 133.199 15.4242C133.199 15.9234 133.377 16.3003 133.732 16.5549C134.088 16.8095 134.541 16.9368 135.092 16.9368Z" fill="var(--fill-0, #40DAFE)"/>
<path d="M144.992 15.0873L144.985 11.815H145.409L149.443 7.19489H152.535L147.572 12.8558H147.024L144.992 15.0873ZM142.581 18.6965V3.36102H145.226V18.6965H142.581ZM149.626 18.6965L145.972 13.4624L147.755 11.5529L152.791 18.6965H149.626Z" fill="var(--fill-0, #40DAFE)"/>
<path d="M162.759 10.235L160.347 10.5046C160.279 10.255 160.159 10.0204 159.989 9.80072C159.823 9.58107 159.599 9.40385 159.317 9.26907C159.034 9.13428 158.688 9.06689 158.279 9.06689C157.728 9.06689 157.265 9.1892 156.89 9.43381C156.52 9.67841 156.337 9.99541 156.342 10.3848C156.337 10.7192 156.456 10.9913 156.7 11.201C156.949 11.4106 157.358 11.5829 157.928 11.7177L159.843 12.137C160.905 12.3716 161.694 12.7435 162.211 13.2527C162.732 13.7619 162.995 14.4283 163 15.252C162.995 15.9758 162.788 16.6148 162.379 17.1689C161.974 17.7181 161.412 18.1474 160.691 18.4569C159.969 18.7664 159.141 18.9211 158.206 18.9211C156.832 18.9211 155.726 18.6266 154.888 18.0375C154.05 17.4435 153.55 16.6173 153.389 15.559L155.969 15.3044C156.086 15.8236 156.335 16.2155 156.715 16.48C157.095 16.7446 157.589 16.8769 158.198 16.8769C158.827 16.8769 159.331 16.7446 159.711 16.48C160.096 16.2155 160.289 15.8885 160.289 15.4991C160.289 15.1696 160.164 14.8976 159.916 14.6829C159.672 14.4683 159.292 14.3035 158.776 14.1887L156.861 13.7769C155.784 13.5472 154.987 13.1603 154.471 12.6162C153.955 12.0671 153.699 11.3732 153.704 10.5345C153.699 9.82568 153.886 9.21166 154.266 8.69249C154.651 8.16833 155.185 7.76398 155.867 7.47943C156.554 7.1899 157.346 7.04513 158.242 7.04513C159.558 7.04513 160.593 7.33217 161.348 7.90625C162.108 8.48033 162.579 9.25659 162.759 10.235Z" fill="var(--fill-0, #40DAFE)"/>
</g>
</svg>
