<svg preserveAspectRatio="none" width="100%" height="100%" overflow="visible" style="display: block;" viewBox="0 0 15.75 15.75" fill="none" xmlns="http://www.w3.org/2000/svg">
<g id="Group">
<path id="Vector" d="M11.125 2.625H4.625C3.52043 2.625 2.625 3.52043 2.625 4.625V11.125C2.625 12.2296 3.52043 13.125 4.625 13.125H11.125C12.2296 13.125 13.125 12.2296 13.125 11.125V4.625C13.125 3.52043 12.2296 2.625 11.125 2.625Z" stroke="var(--stroke-0, #3FDBFF)" stroke-width="1.25" stroke-linecap="round" stroke-linejoin="round"/>
<path id="Vector_2" d="M5.625 5.625V10.125H10.125V5.625H5.625Z" stroke="var(--stroke-0, #3FDBFF)" stroke-width="1.25" stroke-linecap="round" stroke-linejoin="round"/>
<path id="Vector_3" d="M7.875 0.625V2.625" stroke="var(--stroke-0, #3FDBFF)" stroke-width="1.25" stroke-linecap="round" stroke-linejoin="round"/>
<path id="Vector_4" d="M4.625 0.625V2.625" stroke="var(--stroke-0, #3FDBFF)" stroke-width="1.25" stroke-linecap="round" stroke-linejoin="round"/>
<path id="Vector_5" d="M11.125 0.625V2.625" stroke="var(--stroke-0, #3FDBFF)" stroke-width="1.25" stroke-linecap="round" stroke-linejoin="round"/>
<path id="Vector_6" d="M15.125 7.875H13.125" stroke="var(--stroke-0, #3FDBFF)" stroke-width="1.25" stroke-linecap="round" stroke-linejoin="round"/>
<path id="Vector_7" d="M15.125 4.625H13.125" stroke="var(--stroke-0, #3FDBFF)" stroke-width="1.25" stroke-linecap="round" stroke-linejoin="round"/>
<path id="Vector_8" d="M15.125 11.125H13.125" stroke="var(--stroke-0, #3FDBFF)" stroke-width="1.25" stroke-linecap="round" stroke-linejoin="round"/>
<path id="Vector_9" d="M7.875 15.125V13.125" stroke="var(--stroke-0, #3FDBFF)" stroke-width="1.25" stroke-linecap="round" stroke-linejoin="round"/>
<path id="Vector_10" d="M11.125 15.125V13.125" stroke="var(--stroke-0, #3FDBFF)" stroke-width="1.25" stroke-linecap="round" stroke-linejoin="round"/>
<path id="Vector_11" d="M4.625 15.125V13.125" stroke="var(--stroke-0, #3FDBFF)" stroke-width="1.25" stroke-linecap="round" stroke-linejoin="round"/>
<path id="Vector_12" d="M0.625 7.875H2.625" stroke="var(--stroke-0, #3FDBFF)" stroke-width="1.25" stroke-linecap="round" stroke-linejoin="round"/>
<path id="Vector_13" d="M0.625 11.125H2.625" stroke="var(--stroke-0, #3FDBFF)" stroke-width="1.25" stroke-linecap="round" stroke-linejoin="round"/>
<path id="Vector_14" d="M0.625 4.625H2.625" stroke="var(--stroke-0, #3FDBFF)" stroke-width="1.25" stroke-linecap="round" stroke-linejoin="round"/>
</g>
</svg>
