<svg preserveAspectRatio="none" width="100%" height="100%" overflow="visible" style="display: block;" viewBox="0 0 10.985 10.9849" fill="none" xmlns="http://www.w3.org/2000/svg">
<g id="Group">
<path id="Vector" d="M10.3757 3.61696H8.05015C7.67369 3.61696 7.36816 3.31143 7.36816 2.93497V0.617572" stroke="var(--stroke-0, #0D0D0D)" stroke-width="1.09605" stroke-linecap="round" stroke-linejoin="round"/>
<path id="Vector_2" d="M4.64011 4.29901L6.34508 6.00398L4.64011 7.70895" stroke="var(--stroke-0, #0D0D0D)" stroke-width="1.09605" stroke-linecap="round" stroke-linejoin="round"/>
<path id="Vector_3" d="M2.59407 8.0499V9.07288C2.59407 9.82614 3.20445 10.4369 3.95804 10.4369H9.03067C9.77608 10.4369 10.3837 9.8378 10.3946 9.09184L10.4369 3.89952C10.4369 3.71852 10.3653 3.54502 10.2371 3.41715L7.56781 0.747644C7.43959 0.619771 7.26637 0.548026 7.08564 0.548026H3.95804C3.20513 0.548026 2.59407 1.15875 2.59407 1.912V3.95797" stroke="var(--stroke-0, #0D0D0D)" stroke-width="1.09605" stroke-linecap="round" stroke-linejoin="round"/>
<path id="Vector_4" d="M6.17443 6.00385H0.548026" stroke="var(--stroke-0, #0D0D0D)" stroke-width="1.09605" stroke-linecap="round" stroke-linejoin="round"/>
</g>
</svg>
