<svg preserveAspectRatio="none" width="100%" height="100%" overflow="visible" style="display: block;" viewBox="0 0 10.3029 10.3029" fill="none" xmlns="http://www.w3.org/2000/svg">
<g id="Group">
<path id="Vector" d="M6.34508 0.548026V2.59399C6.34508 2.97045 6.03955 3.27598 5.66309 3.27598H3.27613C2.89967 3.27598 2.59414 2.97045 2.59414 2.59399V0.548026" stroke="var(--stroke-0, #0D0D0D)" stroke-width="1.09605" stroke-linecap="round" stroke-linejoin="round"/>
<path id="Vector_2" d="M2.59414 9.75487V6.34493C2.59414 5.96847 2.89967 5.66294 3.27613 5.66294H7.02707C7.40352 5.66294 7.70905 5.96847 7.70905 6.34493V9.75487" stroke="var(--stroke-0, #0D0D0D)" stroke-width="1.09605" stroke-linecap="round" stroke-linejoin="round"/>
<path id="Vector_3" d="M8.28177 9.75489H2.02112C1.20751 9.75489 0.548026 9.09541 0.548026 8.28179V2.02114C0.548026 1.20753 1.20751 0.548047 2.02112 0.548047H7.08557C7.26629 0.548047 7.4402 0.619656 7.56773 0.74787L9.55504 2.73518C9.68326 2.8634 9.75487 3.03662 9.75487 3.21735V8.28179C9.75487 9.09541 9.09538 9.75489 8.28177 9.75489Z" stroke="var(--stroke-0, #0D0D0D)" stroke-width="1.09605" stroke-linecap="round" stroke-linejoin="round"/>
</g>
</svg>
