<svg preserveAspectRatio="none" width="100%" height="100%" overflow="visible" style="display: block;" viewBox="0 0 10.6486 10.6486" fill="none" xmlns="http://www.w3.org/2000/svg">
<g id="Group">
<path id="Vector" d="M10.0579 3.50626H7.80347C7.43853 3.50626 7.14236 3.21008 7.14236 2.84515V0.598694" stroke="var(--stroke-0, #0D0D0D)" stroke-width="1.0625" stroke-linecap="round" stroke-linejoin="round"/>
<path id="Vector_2" d="M4.49791 4.16741L6.15069 5.82019L4.49791 7.47296" stroke="var(--stroke-0, #0D0D0D)" stroke-width="1.0625" stroke-linecap="round" stroke-linejoin="round"/>
<path id="Vector_3" d="M2.51459 7.80347V8.79514C2.51459 9.52534 3.10629 10.1174 3.83681 10.1174H8.75416C9.47675 10.1174 10.0658 9.53664 10.0764 8.81352L10.1174 3.78015C10.1174 3.60469 10.048 3.4365 9.92366 3.31254L7.33608 0.724757C7.21179 0.600799 7.04386 0.53125 6.86867 0.53125H3.83681C3.10695 0.53125 2.51459 1.12328 2.51459 1.85347V3.83681" stroke="var(--stroke-0, #0D0D0D)" stroke-width="1.0625" stroke-linecap="round" stroke-linejoin="round"/>
<path id="Vector_4" d="M5.98542 5.82009H0.53125" stroke="var(--stroke-0, #0D0D0D)" stroke-width="1.0625" stroke-linecap="round" stroke-linejoin="round"/>
</g>
</svg>
