<svg preserveAspectRatio="none" width="100%" height="100%" overflow="visible" style="display: block;" viewBox="0 0 13.5651 9.28069" fill="none" xmlns="http://www.w3.org/2000/svg">
<g id="Group">
<path id="Vector" d="M8.14705 5.03026C8.46989 5.03026 8.73161 4.76855 8.73161 4.4457C8.73161 4.12286 8.46989 3.86114 8.14705 3.86114C7.8242 3.86114 7.56248 4.12286 7.56248 4.4457C7.56248 4.76855 7.8242 5.03026 8.14705 5.03026Z" fill="var(--fill-0, white)" fill-opacity="0.4"/>
<path id="Vector_2" d="M9.31627 3.47153C9.63911 3.47153 9.90083 3.20981 9.90083 2.88697C9.90083 2.56412 9.63911 2.3024 9.31627 2.3024C8.99342 2.3024 8.73171 2.56412 8.73171 2.88697C8.73171 3.20981 8.99342 3.47153 9.31627 3.47153Z" fill="var(--fill-0, white)" fill-opacity="0.4"/>
<path id="Vector_3" d="M4.64001 2.69202V4.64055" stroke="var(--stroke-0, white)" stroke-opacity="0.4" stroke-width="1.09605" stroke-linecap="round" stroke-linejoin="round"/>
<path id="Vector_4" d="M5.61413 3.66634H3.66559" stroke="var(--stroke-0, white)" stroke-opacity="0.4" stroke-width="1.09605" stroke-linecap="round" stroke-linejoin="round"/>
<path id="Vector_5" d="M12.9516 6.96807L11.3983 1.66882C11.2034 1.00476 10.5947 0.548026 9.90257 0.548026H3.66413C2.97201 0.548026 2.36328 1.00398 2.16843 1.66882L0.615056 6.96807C0.575306 7.09511 0.548026 7.22761 0.548026 7.36869C0.548026 8.12238 1.15909 8.73266 1.912 8.73266C2.36718 8.73266 2.7678 8.50741 3.01487 8.16525L4.00629 6.78413H9.55884L10.5503 8.16525C10.7981 8.50741 11.1987 8.73266 11.6531 8.73266C12.406 8.73266 13.0171 8.12238 13.0171 7.36869C13.0171 7.22839 12.9898 7.09589 12.9501 6.96807H12.9516Z" stroke="var(--stroke-0, white)" stroke-opacity="0.4" stroke-width="1.09605" stroke-linecap="round" stroke-linejoin="round"/>
</g>
</svg>
