<svg preserveAspectRatio="none" width="100%" height="100%" overflow="visible" style="display: block;" viewBox="0 0 11.475 11.475" fill="none" xmlns="http://www.w3.org/2000/svg">
<g id="Group">
<path id="Vector" d="M4.727 3.16418L4.75873 3.10864H3.19289C2.87952 3.10864 2.58301 3.25144 2.38766 3.49639L0.531256 5.82085L2.87754 6.38214C3.2038 5.19412 3.82061 4.09337 4.727 3.16418Z" fill="var(--fill-0, white)"/>
<path id="Vector_2" d="M8.31086 6.748L8.36639 6.71627V8.28211C8.36639 8.59548 8.22359 8.89198 7.97865 9.08734L5.65418 10.9437L5.0929 8.59746C6.28092 8.2712 7.38167 7.65438 8.31086 6.748Z" fill="var(--fill-0, white)"/>
<path id="Vector_3" d="M3.01042 10.1811C2.80713 10.6304 2.35394 10.9437 1.82836 10.9437H0.531256V9.64762C0.531256 9.12204 0.843631 8.66885 1.29385 8.46555" stroke="var(--stroke-0, white)" stroke-width="1.0625" stroke-linecap="round" stroke-linejoin="round"/>
<path id="Vector_4" d="M4.75873 3.10864H3.19289C2.87952 3.10864 2.58301 3.25144 2.38766 3.49639L0.531256 5.82085L2.87754 6.38214" stroke="var(--stroke-0, white)" stroke-width="1.0625" stroke-linecap="round" stroke-linejoin="round"/>
<path id="Vector_5" d="M8.36639 6.71627V8.28211C8.36639 8.59548 8.22359 8.89198 7.97865 9.08734L5.65418 10.9437L5.0929 8.59746" stroke="var(--stroke-0, white)" stroke-width="1.0625" stroke-linecap="round" stroke-linejoin="round"/>
<path id="Vector_6" d="M5.0939 8.59747C8.06394 7.78133 10.5391 5.24464 10.9437 0.531252C6.23035 0.936844 3.69367 3.41204 2.87752 6.38109L5.09291 8.59648L5.0939 8.59747Z" stroke="var(--stroke-0, white)" stroke-width="1.0625" stroke-linecap="round" stroke-linejoin="round"/>
<path id="Vector_7" d="M7.47294 4.74587C7.8837 4.74587 8.21669 4.41288 8.21669 4.00212C8.21669 3.59136 7.8837 3.25837 7.47294 3.25837C7.06218 3.25837 6.72919 3.59136 6.72919 4.00212C6.72919 4.41288 7.06218 4.74587 7.47294 4.74587Z" fill="var(--fill-0, white)"/>
</g>
</svg>
