<svg preserveAspectRatio="none" width="100%" height="100%" overflow="visible" style="display: block;" viewBox="0 0 20.2381 13.8114" fill="none" xmlns="http://www.w3.org/2000/svg">
<g id="Group">
<path id="Vector" d="M12.1662 7.49068C12.6504 7.49068 13.043 7.0981 13.043 6.61384C13.043 6.12957 12.6504 5.73699 12.1662 5.73699C11.6819 5.73699 11.2893 6.12957 11.2893 6.61384C11.2893 7.0981 11.6819 7.49068 12.1662 7.49068Z" fill="var(--fill-0, #3FDBFF)"/>
<path id="Vector_2" d="M13.9198 5.15252C14.4041 5.15252 14.7967 4.75995 14.7967 4.27568C14.7967 3.79141 14.4041 3.39884 13.9198 3.39884C13.4356 3.39884 13.043 3.79141 13.043 4.27568C13.043 4.75995 13.4356 5.15252 13.9198 5.15252Z" fill="var(--fill-0, #3FDBFF)"/>
<path id="Vector_3" d="M6.90485 3.98335V6.90616" stroke="var(--stroke-0, #3FDBFF)" stroke-width="1.53447" stroke-linecap="round" stroke-linejoin="round"/>
<path id="Vector_4" d="M8.36642 5.44488H5.44362" stroke="var(--stroke-0, #3FDBFF)" stroke-width="1.53447" stroke-linecap="round" stroke-linejoin="round"/>
<path id="Vector_5" d="M19.3726 10.3973L17.0426 2.44844C16.7503 1.45234 15.8372 0.767237 14.799 0.767237H5.44139C4.40321 0.767237 3.49012 1.45117 3.19784 2.44844L0.867781 10.3973C0.808156 10.5879 0.767237 10.7866 0.767237 10.9982C0.767237 12.1288 1.68383 13.0442 2.8132 13.0442C3.49597 13.0442 4.0969 12.7063 4.46751 12.1931L5.95463 10.1214H14.2835L15.7706 12.1931C16.1424 12.7063 16.7433 13.0442 17.4249 13.0442C18.5543 13.0442 19.4709 12.1288 19.4709 10.9982C19.4709 10.7878 19.4299 10.589 19.3703 10.3973H19.3726Z" stroke="var(--stroke-0, #3FDBFF)" stroke-width="1.53447" stroke-linecap="round" stroke-linejoin="round"/>
</g>
</svg>
