<svg preserveAspectRatio="none" width="100%" height="100%" overflow="visible" style="display: block;" viewBox="0 0 11.8373 11.8373" fill="none" xmlns="http://www.w3.org/2000/svg">
<g id="Group">
<path id="Vector" d="M4.87627 3.26411L4.90901 3.20683H3.29372C2.97045 3.20683 2.66458 3.35414 2.46306 3.60681L0.548033 6.00468L2.96841 6.58369C3.30497 5.35816 3.94127 4.22265 4.87627 3.26411Z" fill="var(--fill-0, white)"/>
<path id="Vector_2" d="M8.57331 6.96105L8.6306 6.92832V8.5436C8.6306 8.86687 8.48329 9.17274 8.23061 9.37427L5.83274 11.2893L5.25374 8.86891C6.47927 8.53235 7.61478 7.89606 8.57331 6.96105Z" fill="var(--fill-0, white)"/>
<path id="Vector_3" d="M3.10549 10.5026C2.89578 10.966 2.42827 11.2893 1.88609 11.2893H0.548033V9.95226C0.548033 9.41008 0.870272 8.94258 1.33471 8.73287" stroke="var(--stroke-0, white)" stroke-width="1.09605" stroke-linecap="round" stroke-linejoin="round"/>
<path id="Vector_4" d="M4.90901 3.20683H3.29372C2.97045 3.20683 2.66458 3.35414 2.46306 3.60681L0.548033 6.00468L2.96841 6.58369" stroke="var(--stroke-0, white)" stroke-width="1.09605" stroke-linecap="round" stroke-linejoin="round"/>
<path id="Vector_5" d="M8.6306 6.92832V8.5436C8.6306 8.86687 8.48329 9.17274 8.23061 9.37427L5.83274 11.2893L5.25374 8.86891" stroke="var(--stroke-0, white)" stroke-width="1.09605" stroke-linecap="round" stroke-linejoin="round"/>
<path id="Vector_6" d="M5.25468 8.86897C8.31851 8.02705 10.8719 5.41026 11.2893 0.548029C6.42702 0.966428 3.81023 3.51979 2.96832 6.5826L5.25366 8.86794L5.25468 8.86897Z" stroke="var(--stroke-0, white)" stroke-width="1.09605" stroke-linecap="round" stroke-linejoin="round"/>
<path id="Vector_7" d="M7.70891 4.89576C8.13264 4.89576 8.47615 4.55226 8.47615 4.12852C8.47615 3.70479 8.13264 3.36129 7.70891 3.36129C7.28518 3.36129 6.94167 3.70479 6.94167 4.12852C6.94167 4.55226 7.28518 4.89576 7.70891 4.89576Z" fill="var(--fill-0, white)"/>
</g>
</svg>
