<svg preserveAspectRatio="none" width="100%" height="100%" overflow="visible" style="display: block;" viewBox="0 0 9.9875 9.98758" fill="none" xmlns="http://www.w3.org/2000/svg">
<g id="Group">
<path id="Vector" d="M6.1507 0.531299V2.51463C6.1507 2.87957 5.85452 3.17574 5.48959 3.17574H3.1757C2.81077 3.17574 2.51459 2.87957 2.51459 2.51463V0.531299" stroke="var(--stroke-0, #0D0D0D)" stroke-width="1.0625" stroke-linecap="round" stroke-linejoin="round"/>
<path id="Vector_2" d="M2.51459 9.45633V6.15078C2.51459 5.78584 2.81077 5.48967 3.1757 5.48967H6.81181C7.17675 5.48967 7.47292 5.78584 7.47292 6.15078V9.45633" stroke="var(--stroke-0, #0D0D0D)" stroke-width="1.0625" stroke-linecap="round" stroke-linejoin="round"/>
<path id="Vector_3" d="M8.02825 9.45625H1.95925C1.17054 9.45625 0.53125 8.81696 0.53125 8.02825V1.95925C0.53125 1.17054 1.17054 0.53125 1.95925 0.53125H6.86866C7.04386 0.53125 7.21244 0.600667 7.33607 0.724956L9.26254 2.65143C9.38683 2.77572 9.45625 2.94364 9.45625 3.11884V8.02825C9.45625 8.81696 8.81696 9.45625 8.02825 9.45625Z" stroke="var(--stroke-0, #0D0D0D)" stroke-width="1.0625" stroke-linecap="round" stroke-linejoin="round"/>
</g>
</svg>
