<svg preserveAspectRatio="none" width="100%" height="100%" overflow="visible" style="display: block;" viewBox="0 0 19.6186 13.3886" fill="none" xmlns="http://www.w3.org/2000/svg">
<g id="Group">
<path id="Vector" d="M11.7937 7.26148C12.2632 7.26148 12.6437 6.88092 12.6437 6.41148C12.6437 5.94204 12.2632 5.56148 11.7937 5.56148C11.3243 5.56148 10.9437 5.94204 10.9437 6.41148C10.9437 6.88092 11.3243 7.26148 11.7937 7.26148Z" fill="var(--fill-0, #3FDBFF)"/>
<path id="Vector_2" d="M13.4937 4.99485C13.9632 4.99485 14.3437 4.61429 14.3437 4.14485C14.3437 3.67541 13.9632 3.29485 13.4937 3.29485C13.0243 3.29485 12.6437 3.67541 12.6437 4.14485C12.6437 4.61429 13.0243 4.99485 13.4937 4.99485Z" fill="var(--fill-0, #3FDBFF)"/>
<path id="Vector_3" d="M6.69374 3.86148V6.69481" stroke="var(--stroke-0, #3FDBFF)" stroke-width="1.4875" stroke-linecap="round" stroke-linejoin="round"/>
<path id="Vector_4" d="M8.11044 5.27822H5.27711" stroke="var(--stroke-0, #3FDBFF)" stroke-width="1.4875" stroke-linecap="round" stroke-linejoin="round"/>
<path id="Vector_5" d="M18.7796 10.079L16.5209 2.37348C16.2375 1.40788 15.3524 0.74375 14.346 0.74375H5.27482C4.26842 0.74375 3.38328 1.40675 3.09995 2.37348L0.841217 10.079C0.783417 10.2638 0.74375 10.4564 0.74375 10.6616C0.74375 11.7575 1.63228 12.6449 2.72708 12.6449C3.38895 12.6449 3.97148 12.3174 4.33075 11.8198L5.77235 9.81155H13.8462L15.2878 11.8198C15.6482 12.3174 16.2307 12.6449 16.8915 12.6449C17.9863 12.6449 18.8748 11.7575 18.8748 10.6616C18.8748 10.4576 18.8351 10.2649 18.7773 10.079H18.7796Z" stroke="var(--stroke-0, #3FDBFF)" stroke-width="1.4875" stroke-linecap="round" stroke-linejoin="round"/>
</g>
</svg>
