<svg preserveAspectRatio="none" width="100%" height="100%" overflow="visible" style="display: block;" viewBox="0 0 13.1499 8.99659" fill="none" xmlns="http://www.w3.org/2000/svg">
<g id="Group">
<path id="Vector" d="M7.8979 4.87644C8.21087 4.87644 8.46457 4.62273 8.46457 4.30977C8.46457 3.99681 8.21087 3.7431 7.8979 3.7431C7.58494 3.7431 7.33124 3.99681 7.33124 4.30977C7.33124 4.62273 7.58494 4.87644 7.8979 4.87644Z" fill="var(--fill-0, white)" fill-opacity="0.4"/>
<path id="Vector_2" d="M9.03122 3.36528C9.34418 3.36528 9.59789 3.11157 9.59789 2.79861C9.59789 2.48565 9.34418 2.23195 9.03122 2.23195C8.71826 2.23195 8.46455 2.48565 8.46455 2.79861C8.46455 3.11157 8.71826 3.36528 9.03122 3.36528Z" fill="var(--fill-0, white)" fill-opacity="0.4"/>
<path id="Vector_3" d="M4.49792 2.60974V4.49862" stroke="var(--stroke-0, white)" stroke-opacity="0.4" stroke-width="1.0625" stroke-linecap="round" stroke-linejoin="round"/>
<path id="Vector_4" d="M5.44234 3.55416H3.55345" stroke="var(--stroke-0, white)" stroke-opacity="0.4" stroke-width="1.0625" stroke-linecap="round" stroke-linejoin="round"/>
<path id="Vector_5" d="M12.5552 6.75476L11.0493 1.61774C10.8604 0.974005 10.2704 0.53125 9.59943 0.53125H3.55196C2.88103 0.53125 2.29094 0.97325 2.10205 1.61774L0.596228 6.75476C0.557694 6.87792 0.53125 7.00636 0.53125 7.14312C0.53125 7.87374 1.12361 8.46534 1.85347 8.46534C2.29472 8.46534 2.68307 8.24698 2.92258 7.9153L3.88365 6.57645H9.26623L10.2273 7.9153C10.4676 8.24698 10.8559 8.46534 11.2964 8.46534C12.0263 8.46534 12.6186 7.87374 12.6186 7.14312C12.6186 7.00712 12.5922 6.87867 12.5537 6.75476H12.5552Z" stroke="var(--stroke-0, white)" stroke-opacity="0.4" stroke-width="1.0625" stroke-linecap="round" stroke-linejoin="round"/>
</g>
</svg>
