<svg preserveAspectRatio="none" width="100%" height="100%" overflow="visible" style="display: block;" viewBox="0 0 13.75 14.7495" fill="none" xmlns="http://www.w3.org/2000/svg">
<g id="Group">
<path id="Vector" d="M7.672 5.55845L8.664 6.86945" stroke="var(--stroke-0, #3FDBFF)" stroke-width="1.25" stroke-linecap="round" stroke-linejoin="round"/>
<path id="Vector_2" d="M4.369 3.80245L2.666 5.09145C1.125 6.25845 0.821 8.45345 1.988 9.99445L2.559 10.7485" stroke="var(--stroke-0, #3FDBFF)" stroke-width="1.25" stroke-linecap="round" stroke-linejoin="round"/>
<path id="Vector_3" d="M8.092 11.0715L12.31 7.87845" stroke="var(--stroke-0, #3FDBFF)" stroke-width="1.25" stroke-linecap="round" stroke-linejoin="round"/>
<path id="Vector_4" d="M13.125 14.1245H0.625V13.3745C0.625 11.8555 1.856 10.6245 3.375 10.6245C4.894 10.6245 6.125 11.8555 6.125 13.3745V14.1245" stroke="var(--stroke-0, #3FDBFF)" stroke-width="1.25" stroke-linecap="round" stroke-linejoin="round"/>
<path id="Vector_5" d="M4.80745 0.827801L3.89376 1.51952C3.45343 1.85288 3.36671 2.48008 3.70007 2.92041L5.81266 5.71092C6.14602 6.15125 6.77322 6.23797 7.21355 5.90461L8.12724 5.21289C8.56757 4.87953 8.65429 4.25233 8.32093 3.812L6.20834 1.02149C5.87498 0.581162 5.24778 0.494443 4.80745 0.827801Z" stroke="var(--stroke-0, #3FDBFF)" stroke-width="1.25" stroke-linecap="round" stroke-linejoin="round"/>
</g>
</svg>
