<svg preserveAspectRatio="none" width="100%" height="100%" overflow="visible" style="display: block;" viewBox="0 0 16 16" fill="none" xmlns="http://www.w3.org/2000/svg">
<g id="Group">
<path id="Vector" d="M10.25 10.758C9.778 11.504 8.946 12 8 12C7.054 12 6.222 11.504 5.75 10.758" stroke="var(--stroke-0, #3FDBFF)" stroke-width="1.5" stroke-linecap="round" stroke-linejoin="round"/>
<path id="Vector_2" d="M8 15.25C12.0041 15.25 15.25 12.0041 15.25 8C15.25 3.99594 12.0041 0.75 8 0.75C3.99594 0.75 0.75 3.99594 0.75 8C0.75 12.0041 3.99594 15.25 8 15.25Z" stroke="var(--stroke-0, #3FDBFF)" stroke-width="1.5" stroke-linecap="round" stroke-linejoin="round"/>
<path id="Vector_3" d="M5 9C5.55228 9 6 8.55228 6 8C6 7.44772 5.55228 7 5 7C4.44772 7 4 7.44772 4 8C4 8.55228 4.44772 9 5 9Z" fill="var(--fill-0, #3FDBFF)"/>
<path id="Vector_4" d="M9 8.25C9.138 8.145 9.604 7.818 10.281 7.828C10.92 7.838 11.358 8.142 11.5 8.25" stroke="var(--stroke-0, #3FDBFF)" stroke-width="1.5" stroke-linecap="round" stroke-linejoin="round"/>
</g>
</svg>
