<svg preserveAspectRatio="none" width="100%" height="100%" overflow="visible" style="display: block;" viewBox="0 0 14 15.4442" fill="none" xmlns="http://www.w3.org/2000/svg">
<g id="Group">
<path id="Vector" d="M6.37502 3.99515L8.11302 7.51715L12 8.08215L9.18702 10.8231L9.85102 14.6942L6.37502 12.8662L2.89902 14.6942L3.56302 10.8231L0.750022 8.08215L4.63702 7.51715L6.37502 3.99515Z" stroke="var(--stroke-0, #3FDBFF)" stroke-width="1.5" stroke-linecap="round" stroke-linejoin="round"/>
<path id="Vector_2" d="M13.25 14.0001C13.664 14.0001 14 13.6601 14 13.2501C14 12.8401 13.664 12.5001 13.25 12.5001C12.836 12.5001 12.5 12.8401 12.5 13.2501C12.5 13.6601 12.836 14.0001 13.25 14.0001Z" fill="var(--fill-0, #3FDBFF)"/>
<path id="Vector_3" d="M3.49402 2.49165L2.54802 2.17665L2.23202 1.22965C2.13002 0.92365 1.62302 0.92365 1.52102 1.22965L1.20502 2.17665L0.259022 2.49165C0.106022 2.54265 0.00202194 2.68565 0.00202194 2.84765C0.00202194 3.00965 0.106022 3.15265 0.259022 3.20365L1.20502 3.51865L1.52102 4.46565C1.57202 4.61865 1.71502 4.72165 1.87602 4.72165C2.03702 4.72165 2.18102 4.61765 2.23102 4.46565L2.54702 3.51865L3.49302 3.20365C3.64602 3.15265 3.75002 3.00965 3.75002 2.84765C3.75002 2.68565 3.64702 2.54265 3.49402 2.49165Z" fill="var(--fill-0, #3FDBFF)"/>
<path id="Vector_4" d="M13.657 2.00455L12.394 1.58045L11.973 0.30825C11.836 -0.10275 11.161 -0.10275 11.024 0.30825L10.603 1.58045L9.34002 2.00455C9.13602 2.07305 8.99802 2.26545 8.99802 2.48195C8.99802 2.69845 9.13602 2.89085 9.34002 2.95935L10.603 3.38345L11.024 4.65565C11.092 4.86115 11.284 5.00015 11.499 5.00015C11.714 5.00015 11.905 4.86115 11.974 4.65565L12.395 3.38345L13.658 2.95935C13.862 2.89085 14 2.69845 14 2.48195C14 2.26545 13.861 2.07305 13.657 2.00455Z" fill="var(--fill-0, #3FDBFF)"/>
</g>
</svg>
