<svg preserveAspectRatio="none" width="100%" height="100%" overflow="visible" style="display: block;" viewBox="0 0 15.7507 15.7498" fill="none" xmlns="http://www.w3.org/2000/svg">
<g id="Group">
<path id="Vector" d="M7.12573 8.625L8.87573 6.875" stroke="var(--stroke-0, white)" stroke-width="1.25" stroke-linecap="round" stroke-linejoin="round"/>
<path id="Vector_2" d="M9.12573 3.625C10.7827 3.625 12.1257 4.968 12.1257 6.625" stroke="var(--stroke-0, white)" stroke-width="1.25" stroke-linecap="round" stroke-linejoin="round"/>
<path id="Vector_3" d="M9.12573 0.625C12.4397 0.625 15.1257 3.311 15.1257 6.625" stroke="var(--stroke-0, white)" stroke-width="1.25" stroke-linecap="round" stroke-linejoin="round"/>
<path id="Vector_4" d="M11.2947 13.294C8.85375 15.735 4.89675 15.735 2.45575 13.294C0.01475 10.853 0.01475 6.896 2.45575 4.455" stroke="var(--stroke-0, white)" stroke-width="1.25" stroke-linecap="round" stroke-linejoin="round"/>
<path id="Vector_5" d="M6.14809 5.3604C4.51209 4.2684 3.05859 3.85209 2.45569 4.45509C1.57339 5.33739 2.83699 8.0315 5.27809 10.4727C7.71919 12.9136 10.4134 14.1773 11.2957 13.295C11.8986 12.6922 11.4822 11.2386 10.3902 9.6026" stroke="var(--stroke-0, white)" stroke-width="1.25" stroke-linecap="round" stroke-linejoin="round"/>
</g>
</svg>
