<svg preserveAspectRatio="none" width="100%" height="100%" overflow="visible" style="display: block;" viewBox="0 0 15.7455 15.7455" fill="none" xmlns="http://www.w3.org/2000/svg">
<g id="Group">
<path id="Vector" d="M10.625 6.37052C11.315 6.37052 11.875 5.81092 11.875 5.12052C11.875 4.43012 11.315 3.87052 10.625 3.87052C9.935 3.87052 9.375 4.43012 9.375 5.12052C9.375 5.81092 9.935 6.37052 10.625 6.37052Z" fill="var(--fill-0, white)"/>
<path id="Vector_2" d="M1.73199 11.3397C1.07809 11.6686 0.625001 12.3385 0.625001 13.1205V15.1205H2.625C3.4067 15.1205 4.0766 14.6676 4.4055 14.0138" stroke="var(--stroke-0, white)" stroke-width="1.25" stroke-linecap="round" stroke-linejoin="round"/>
<path id="Vector_3" d="M12.0457 8.92932C15.5509 5.25152 15.1222 0.964721 15.0858 0.659721C14.7799 0.623321 10.494 0.194621 6.81618 3.69982C4.58838 5.82312 3.83849 8.19382 3.62079 8.98692L6.75868 12.1248C7.55178 11.9071 9.9224 11.157 12.0457 8.92932Z" stroke="var(--stroke-0, white)" stroke-width="1.25" stroke-linecap="round" stroke-linejoin="round"/>
<path id="Vector_4" d="M7.14101 3.39842L5.767 3.15242C4.512 2.92742 3.612 2.82952 2.875 3.87052L0.625001 7.14042C0.625001 7.14042 2.2278 6.52732 4.4671 6.83742" stroke="var(--stroke-0, white)" stroke-width="1.25" stroke-linecap="round" stroke-linejoin="round"/>
<path id="Vector_5" d="M8.908 11.2783C9.2181 13.5175 8.60498 15.1204 8.60498 15.1204L11.875 12.8705C12.916 12.1335 12.818 11.2334 12.593 9.97842L12.347 8.60442" stroke="var(--stroke-0, white)" stroke-width="1.25" stroke-linecap="round" stroke-linejoin="round"/>
</g>
</svg>
