<svg preserveAspectRatio="none" width="100%" height="100%" overflow="visible" style="display: block;" viewBox="0 0 13.4536 15.5002" fill="none" xmlns="http://www.w3.org/2000/svg">
<g id="Group">
<path id="Vector" d="M8.7266 11.8751L8.9766 14.8751" stroke="var(--stroke-0, #3FDBFF)" stroke-width="1.25" stroke-linecap="round" stroke-linejoin="round"/>
<path id="Vector_2" d="M4.7266 11.8751L4.4766 14.8751" stroke="var(--stroke-0, #3FDBFF)" stroke-width="1.25" stroke-linecap="round" stroke-linejoin="round"/>
<path id="Vector_3" d="M8.2266 5.37514L8.5061 2.71954C8.6132 1.70204 7.9047 0.71844 6.8853 0.63184C5.7417 0.53464 4.8187 1.49894 4.9361 2.61394L5.2267 5.37514L3.2177 5.66214C2.3349 5.78824 1.6422 6.48364 1.5196 7.36694L0.634797 13.7376C0.551297 14.3388 1.0183 14.8752 1.6253 14.8752H11.8283C12.4353 14.8752 12.9023 14.3388 12.8188 13.7376L11.934 7.36694C11.8113 6.48364 11.1187 5.78834 10.2359 5.66214L8.2266 5.37514Z" stroke="var(--stroke-0, #3FDBFF)" stroke-width="1.25" stroke-linecap="round" stroke-linejoin="round"/>
<path id="Vector_4" d="M11.9766 8.87514H1.4766" stroke="var(--stroke-0, #3FDBFF)" stroke-width="1.25" stroke-linecap="round" stroke-linejoin="round"/>
</g>
</svg>
