<svg preserveAspectRatio="none" width="100%" height="100%" overflow="visible" style="display: block;" viewBox="0 0 15.1248 15.1274" fill="none" xmlns="http://www.w3.org/2000/svg">
<g id="Group">
<path id="Vector" d="M10.6955 1.92528L1.04271 11.583C0.652813 11.973 0.652413 12.6051 1.04161 12.9957L2.12682 14.0849C2.51782 14.4749 3.15081 14.4749 3.54181 14.0849L13.1939 4.42687C13.5837 4.03677 13.5842 3.40475 13.195 3.01415L12.1112 1.92638C11.7208 1.53458 11.0865 1.53408 10.6955 1.92528Z" stroke="var(--stroke-0, #3FDBFF)" stroke-width="1.5" stroke-linecap="round" stroke-linejoin="round"/>
<path id="Vector_2" d="M8.51078 4.35999L10.7608 6.60999" stroke="var(--stroke-0, #3FDBFF)" stroke-width="1.5" stroke-linecap="round" stroke-linejoin="round"/>
<path id="Vector_3" d="M5.36675 2.48999L4.42075 2.18006L4.10475 1.22998C4.00275 0.92008 3.49575 0.92008 3.39375 1.22998L3.07774 2.18006L2.13175 2.48999C1.97875 2.53999 1.87476 2.68998 1.87476 2.84998C1.87476 3.00998 1.97875 3.14995 2.13175 3.19995L3.07774 3.52014L3.39375 4.4701C3.44475 4.6201 3.58775 4.7201 3.74875 4.7201C3.90975 4.7201 4.05375 4.6201 4.10375 4.4701L4.41975 3.52014L5.36575 3.19995C5.51875 3.15005 5.62274 3.01008 5.62274 2.84998C5.62274 2.68988 5.51975 2.54009 5.36675 2.48999Z" fill="var(--fill-0, #3FDBFF)"/>
<path id="Vector_4" d="M14.7818 10.99L13.5188 10.57L13.0978 9.3101C12.9608 8.90006 12.2858 8.90006 12.1488 9.3101L11.7278 10.57L10.4648 10.99C10.2608 11.0601 10.1228 11.25 10.1228 11.46C10.1228 11.6801 10.2608 11.8699 10.4648 11.9399L11.7278 12.36L12.1488 13.62C12.2168 13.83 12.4088 13.96 12.6238 13.96C12.8388 13.96 13.0298 13.83 13.0988 13.62L13.5198 12.36L14.7828 11.9399C14.9868 11.87 15.1248 11.6801 15.1248 11.46C15.1248 11.25 14.9858 11.0601 14.7818 10.99Z" fill="var(--fill-0, #3FDBFF)"/>
<path id="Vector_5" d="M7.37378 1.5C7.78778 1.5 8.12378 1.16 8.12378 0.75C8.12378 0.34 7.78778 0 7.37378 0C6.95978 0 6.62378 0.34 6.62378 0.75C6.62378 1.16 6.95978 1.5 7.37378 1.5Z" fill="var(--fill-0, #3FDBFF)"/>
</g>
</svg>
