<svg preserveAspectRatio="none" width="100%" height="100%" overflow="visible" style="display: block;" viewBox="0 0 13.1039 13.1039" fill="none" xmlns="http://www.w3.org/2000/svg">
<g id="Group">
<path id="Vector" d="M9.24355 2.20436H3.86071C2.94599 2.20436 2.20446 2.94589 2.20446 3.86062V9.24345C2.20446 10.1582 2.94599 10.8997 3.86071 10.8997H9.24355C10.1583 10.8997 10.8998 10.1582 10.8998 9.24345V3.86062C10.8998 2.94589 10.1583 2.20436 9.24355 2.20436Z" stroke="var(--stroke-0, #6D6D6D)" stroke-width="1.09605" stroke-linecap="round" stroke-linejoin="round"/>
<path id="Vector_2" d="M4.68852 4.68872V8.4153H8.4151V4.68872H4.68852Z" stroke="var(--stroke-0, #6D6D6D)" stroke-width="1.09605" stroke-linecap="round" stroke-linejoin="round"/>
<path id="Vector_3" d="M6.55205 0.548026V2.20428" stroke="var(--stroke-0, #6D6D6D)" stroke-width="1.09605" stroke-linecap="round" stroke-linejoin="round"/>
<path id="Vector_4" d="M3.8605 0.548026V2.20428" stroke="var(--stroke-0, #6D6D6D)" stroke-width="1.09605" stroke-linecap="round" stroke-linejoin="round"/>
<path id="Vector_5" d="M9.24322 0.548026V2.20428" stroke="var(--stroke-0, #6D6D6D)" stroke-width="1.09605" stroke-linecap="round" stroke-linejoin="round"/>
<path id="Vector_6" d="M12.5559 6.55196H10.8997" stroke="var(--stroke-0, #6D6D6D)" stroke-width="1.09605" stroke-linecap="round" stroke-linejoin="round"/>
<path id="Vector_7" d="M12.5559 3.8606H10.8997" stroke="var(--stroke-0, #6D6D6D)" stroke-width="1.09605" stroke-linecap="round" stroke-linejoin="round"/>
<path id="Vector_8" d="M12.5559 9.24341H10.8997" stroke="var(--stroke-0, #6D6D6D)" stroke-width="1.09605" stroke-linecap="round" stroke-linejoin="round"/>
<path id="Vector_9" d="M6.55205 12.5559V10.8997" stroke="var(--stroke-0, #6D6D6D)" stroke-width="1.09605" stroke-linecap="round" stroke-linejoin="round"/>
<path id="Vector_10" d="M9.24322 12.5559V10.8997" stroke="var(--stroke-0, #6D6D6D)" stroke-width="1.09605" stroke-linecap="round" stroke-linejoin="round"/>
<path id="Vector_11" d="M3.8605 12.5559V10.8997" stroke="var(--stroke-0, #6D6D6D)" stroke-width="1.09605" stroke-linecap="round" stroke-linejoin="round"/>
<path id="Vector_12" d="M0.548026 6.55196H2.20428" stroke="var(--stroke-0, #6D6D6D)" stroke-width="1.09605" stroke-linecap="round" stroke-linejoin="round"/>
<path id="Vector_13" d="M0.548026 9.24341H2.20428" stroke="var(--stroke-0, #6D6D6D)" stroke-width="1.09605" stroke-linecap="round" stroke-linejoin="round"/>
<path id="Vector_14" d="M0.548026 3.8606H2.20428" stroke="var(--stroke-0, #6D6D6D)" stroke-width="1.09605" stroke-linecap="round" stroke-linejoin="round"/>
</g>
</svg>
