<svg preserveAspectRatio="none" width="100%" height="100%" overflow="visible" style="display: block;" viewBox="0 0 12.5021 12.502" fill="none" xmlns="http://www.w3.org/2000/svg">
<g id="Group">
<path id="Vector" d="M8.10227 2.1922C6.35142 0.945162 4.83368 0.53125 3.54169 0.53125L2.90911 1.02576C4.20961 2.00435 5.35998 2.98453 6.37067 3.92458" stroke="var(--stroke-0, #6D6D6D)" stroke-width="1.0625" stroke-linecap="round" stroke-linejoin="round"/>
<path id="Vector_2" d="M8.57751 6.13143C9.51756 7.14213 10.4978 8.2925 11.4763 9.593L11.9709 8.96041C11.9709 7.66842 11.5569 6.15069 10.3099 4.39983" stroke="var(--stroke-0, #6D6D6D)" stroke-width="1.0625" stroke-linecap="round" stroke-linejoin="round"/>
<path id="Vector_3" d="M7.90236 6.20523L2.46916 11.6384C2.02602 12.0816 1.30673 12.0816 0.8636 11.6384C0.420467 11.1953 0.420467 10.476 0.8636 10.0329L6.29681 4.59967" stroke="var(--stroke-0, #6D6D6D)" stroke-width="1.0625" stroke-linecap="round" stroke-linejoin="round"/>
<path id="Vector_4" d="M8.32197 1.97331L6.28069 4.01456C6.12394 4.17132 6.12394 4.42546 6.28069 4.58221L7.92066 6.22216C8.07736 6.37891 8.33152 6.37891 8.4883 6.22216L10.5295 4.1809C10.6863 4.02415 10.6863 3.77 10.5295 3.61325L8.88961 1.97331C8.73283 1.81656 8.47867 1.81656 8.32197 1.97331Z" stroke="var(--stroke-0, #6D6D6D)" stroke-width="1.0625" stroke-linecap="round" stroke-linejoin="round"/>
</g>
</svg>
