<svg preserveAspectRatio="none" width="100%" height="100%" overflow="visible" style="display: block;" viewBox="0 0 12.7028 12.7028" fill="none" xmlns="http://www.w3.org/2000/svg">
<g id="Group">
<path id="Vector" d="M8.96044 2.13683H3.74238C2.85566 2.13683 2.13683 2.85566 2.13683 3.74238V8.96044C2.13683 9.84716 2.85566 10.566 3.74238 10.566H8.96044C9.84716 10.566 10.566 9.84716 10.566 8.96044V3.74238C10.566 2.85566 9.84716 2.13683 8.96044 2.13683Z" stroke="var(--stroke-0, #6D6D6D)" stroke-width="1.0625" stroke-linecap="round" stroke-linejoin="round"/>
<path id="Vector_2" d="M4.54509 4.54509V8.15759H8.15759V4.54509H4.54509Z" stroke="var(--stroke-0, #6D6D6D)" stroke-width="1.0625" stroke-linecap="round" stroke-linejoin="round"/>
<path id="Vector_3" d="M6.35134 0.53125V2.13681" stroke="var(--stroke-0, #6D6D6D)" stroke-width="1.0625" stroke-linecap="round" stroke-linejoin="round"/>
<path id="Vector_4" d="M3.74241 0.53125V2.13681" stroke="var(--stroke-0, #6D6D6D)" stroke-width="1.0625" stroke-linecap="round" stroke-linejoin="round"/>
<path id="Vector_5" d="M8.96038 0.53125V2.13681" stroke="var(--stroke-0, #6D6D6D)" stroke-width="1.0625" stroke-linecap="round" stroke-linejoin="round"/>
<path id="Vector_6" d="M12.1715 6.35134H10.566" stroke="var(--stroke-0, #6D6D6D)" stroke-width="1.0625" stroke-linecap="round" stroke-linejoin="round"/>
<path id="Vector_7" d="M12.1715 3.74241H10.566" stroke="var(--stroke-0, #6D6D6D)" stroke-width="1.0625" stroke-linecap="round" stroke-linejoin="round"/>
<path id="Vector_8" d="M12.1715 8.96038H10.566" stroke="var(--stroke-0, #6D6D6D)" stroke-width="1.0625" stroke-linecap="round" stroke-linejoin="round"/>
<path id="Vector_9" d="M6.35134 12.1715V10.566" stroke="var(--stroke-0, #6D6D6D)" stroke-width="1.0625" stroke-linecap="round" stroke-linejoin="round"/>
<path id="Vector_10" d="M8.96038 12.1715V10.566" stroke="var(--stroke-0, #6D6D6D)" stroke-width="1.0625" stroke-linecap="round" stroke-linejoin="round"/>
<path id="Vector_11" d="M3.74241 12.1715V10.566" stroke="var(--stroke-0, #6D6D6D)" stroke-width="1.0625" stroke-linecap="round" stroke-linejoin="round"/>
<path id="Vector_12" d="M0.53125 6.35134H2.13681" stroke="var(--stroke-0, #6D6D6D)" stroke-width="1.0625" stroke-linecap="round" stroke-linejoin="round"/>
<path id="Vector_13" d="M0.53125 8.96038H2.13681" stroke="var(--stroke-0, #6D6D6D)" stroke-width="1.0625" stroke-linecap="round" stroke-linejoin="round"/>
<path id="Vector_14" d="M0.53125 3.74241H2.13681" stroke="var(--stroke-0, #6D6D6D)" stroke-width="1.0625" stroke-linecap="round" stroke-linejoin="round"/>
</g>
</svg>
