<svg preserveAspectRatio="none" width="100%" height="100%" overflow="visible" style="display: block;" viewBox="0 0 14.3444 9.79223" fill="none" xmlns="http://www.w3.org/2000/svg">
<g id="Group">
<path id="Vector" d="M8.62216 5.31075C8.96518 5.31075 9.24326 5.03267 9.24326 4.68965C9.24326 4.34663 8.96518 4.06855 8.62216 4.06855C8.27914 4.06855 8.00106 4.34663 8.00106 4.68965C8.00106 5.03267 8.27914 5.31075 8.62216 5.31075Z" fill="var(--fill-0, #3FDBFF)"/>
<path id="Vector_2" d="M9.86438 3.65441C10.2074 3.65441 10.4855 3.37634 10.4855 3.03332C10.4855 2.6903 10.2074 2.41222 9.86438 2.41222C9.52136 2.41222 9.24329 2.6903 9.24329 3.03332C9.24329 3.37634 9.52136 3.65441 9.86438 3.65441Z" fill="var(--fill-0, #3FDBFF)"/>
<path id="Vector_3" d="M4.89569 2.82623V4.89655" stroke="var(--stroke-0, #3FDBFF)" stroke-width="1.09605" stroke-linecap="round" stroke-linejoin="round"/>
<path id="Vector_4" d="M5.93089 3.86136H3.86057" stroke="var(--stroke-0, #3FDBFF)" stroke-width="1.09605" stroke-linecap="round" stroke-linejoin="round"/>
<path id="Vector_5" d="M13.7269 7.36932L12.0764 1.73887C11.8694 1.03331 11.2226 0.548026 10.4872 0.548026H3.85888C3.12351 0.548026 2.47674 1.03248 2.26971 1.73887L0.619245 7.36932C0.577011 7.5043 0.548026 7.64509 0.548026 7.79498C0.548026 8.59578 1.19728 9.2442 1.99725 9.2442C2.48088 9.2442 2.90654 9.00487 3.16905 8.64133L4.22243 7.17388H10.122L11.1754 8.64133C11.4387 9.00487 11.8644 9.2442 12.3472 9.2442C13.1472 9.2442 13.7964 8.59578 13.7964 7.79498C13.7964 7.64591 13.7674 7.50513 13.7252 7.36932H13.7269Z" stroke="var(--stroke-0, #3FDBFF)" stroke-width="1.09605" stroke-linecap="round" stroke-linejoin="round"/>
</g>
</svg>
