<svg preserveAspectRatio="none" width="100%" height="100%" overflow="visible" style="display: block;" viewBox="0 0 12.2549 10.198" fill="none" xmlns="http://www.w3.org/2000/svg">
<g id="Group">
<path id="Vector" d="M0.881177 3.20342L5.74229 0.643675C5.9841 0.516143 6.27229 0.516143 6.51411 0.643675L11.3752 3.20342C11.8174 3.43612 11.8174 4.06964 11.3752 4.30235L6.51411 6.86209C6.27229 6.98962 5.9841 6.98962 5.74229 6.86209L0.881177 4.30235C0.438956 4.06964 0.438956 3.43612 0.881177 3.20342Z" stroke="var(--stroke-0, #6D6D6D)" stroke-width="1.09605" stroke-linecap="round" stroke-linejoin="round"/>
<path id="Vector_2" d="M11.7062 6.44469C11.7062 6.66083 11.5953 6.8778 11.3741 6.99457L6.51304 9.55431C6.27122 9.68184 5.98303 9.68184 5.74122 9.55431L0.880106 6.99457C0.658996 6.8778 0.548026 6.66166 0.548026 6.44469" stroke="var(--stroke-0, #6D6D6D)" stroke-width="1.09605" stroke-linecap="round" stroke-linejoin="round"/>
</g>
</svg>
