<svg preserveAspectRatio="none" width="100%" height="100%" overflow="visible" style="display: block;" viewBox="0 0 12.8968 12.8969" fill="none" xmlns="http://www.w3.org/2000/svg">
<g id="Group">
<path id="Vector" d="M8.35813 2.26142C6.55198 0.975009 4.98632 0.548026 3.65353 0.548026L3.00097 1.05815C4.34254 2.06764 5.52923 3.07878 6.57184 4.04852" stroke="var(--stroke-0, #6D6D6D)" stroke-width="1.09605" stroke-linecap="round" stroke-linejoin="round"/>
<path id="Vector_2" d="M8.84823 6.32505C9.81797 7.36766 10.8291 8.55436 11.8386 9.89593L12.3487 9.24337C12.3487 7.91058 11.9217 6.34492 10.6353 4.53877" stroke="var(--stroke-0, #6D6D6D)" stroke-width="1.09605" stroke-linecap="round" stroke-linejoin="round"/>
<path id="Vector_3" d="M8.1519 6.40126L2.54713 12.006C2.09 12.4632 1.348 12.4632 0.890871 12.006C0.433745 11.5489 0.433745 10.8069 0.890871 10.3498L6.49565 4.745" stroke="var(--stroke-0, #6D6D6D)" stroke-width="1.09605" stroke-linecap="round" stroke-linejoin="round"/>
<path id="Vector_4" d="M8.58465 2.03563L6.47891 4.14135C6.31721 4.30306 6.31721 4.56523 6.47891 4.72693L8.17066 6.41866C8.33232 6.58036 8.5945 6.58036 8.75623 6.41866L10.8619 4.31295C11.0237 4.15125 11.0237 3.88907 10.8619 3.72737L9.17022 2.03563C9.00848 1.87393 8.7463 1.87393 8.58465 2.03563Z" stroke="var(--stroke-0, #6D6D6D)" stroke-width="1.09605" stroke-linecap="round" stroke-linejoin="round"/>
</g>
</svg>
