<svg preserveAspectRatio="none" width="100%" height="100%" overflow="visible" style="display: block;" viewBox="0 0 13.9053 9.49247" fill="none" xmlns="http://www.w3.org/2000/svg">
<g id="Group">
<path id="Vector" d="M8.35832 5.14806C8.69084 5.14806 8.9604 4.8785 8.9604 4.54598C8.9604 4.21346 8.69084 3.9439 8.35832 3.9439C8.02579 3.9439 7.75623 4.21346 7.75623 4.54598C7.75623 4.8785 8.02579 5.14806 8.35832 5.14806Z" fill="var(--fill-0, #3FDBFF)"/>
<path id="Vector_2" d="M9.56245 3.54248C9.89497 3.54248 10.1645 3.27292 10.1645 2.9404C10.1645 2.60788 9.89497 2.33832 9.56245 2.33832C9.22993 2.33832 8.96036 2.60788 8.96036 2.9404C8.96036 3.27292 9.22993 3.54248 9.56245 3.54248Z" fill="var(--fill-0, #3FDBFF)"/>
<path id="Vector_3" d="M4.74585 2.73966V4.7466" stroke="var(--stroke-0, #3FDBFF)" stroke-width="1.0625" stroke-linecap="round" stroke-linejoin="round"/>
<path id="Vector_4" d="M5.74933 3.74312H3.74239" stroke="var(--stroke-0, #3FDBFF)" stroke-width="1.0625" stroke-linecap="round" stroke-linejoin="round"/>
<path id="Vector_5" d="M13.3067 7.14373L11.7067 1.68564C11.506 1.00168 10.8791 0.53125 10.1662 0.53125H3.74076C3.02789 0.53125 2.40092 1.00087 2.20022 1.68564L0.600289 7.14373C0.559347 7.27458 0.53125 7.41106 0.53125 7.55636C0.53125 8.33264 1.16063 8.96122 1.93611 8.96122C2.40493 8.96122 2.81756 8.72922 3.07204 8.3768L4.09317 6.95427H9.81216L10.8333 8.3768C11.0886 8.72922 11.5012 8.96122 11.9692 8.96122C12.7447 8.96122 13.3741 8.33264 13.3741 7.55636C13.3741 7.41186 13.346 7.27539 13.3051 7.14373H13.3067Z" stroke="var(--stroke-0, #3FDBFF)" stroke-width="1.0625" stroke-linecap="round" stroke-linejoin="round"/>
</g>
</svg>
