<svg preserveAspectRatio="none" width="100%" height="100%" overflow="visible" style="display: block;" viewBox="0 0 11.8801 9.88588" fill="none" xmlns="http://www.w3.org/2000/svg">
<g id="Group">
<path id="Vector" d="M0.854526 3.10536L5.56683 0.623971C5.80124 0.500343 6.08061 0.500343 6.31502 0.623971L11.0273 3.10536C11.456 3.33094 11.456 3.94506 11.0273 4.17064L6.31502 6.65203C6.08061 6.77566 5.80124 6.77566 5.56683 6.65203L0.854526 4.17064C0.425843 3.94506 0.425843 3.33094 0.854526 3.10536Z" stroke="var(--stroke-0, #6D6D6D)" stroke-width="1.0625" stroke-linecap="round" stroke-linejoin="round"/>
<path id="Vector_2" d="M11.3479 6.24748C11.3479 6.457 11.2403 6.66733 11.026 6.78052L6.31366 9.26191C6.07925 9.38554 5.79988 9.38554 5.56547 9.26191L0.853164 6.78052C0.638822 6.66733 0.53125 6.45781 0.53125 6.24748" stroke="var(--stroke-0, #6D6D6D)" stroke-width="1.0625" stroke-linecap="round" stroke-linejoin="round"/>
</g>
</svg>
