<svg preserveAspectRatio="none" width="100%" height="100%" overflow="visible" style="display: block;" viewBox="0 0 15.9993 15.8588" fill="none" xmlns="http://www.w3.org/2000/svg">
<g id="Group">
<path id="Vector" d="M12.625 10.2338H3.125C1.744 10.2338 0.625 11.3528 0.625 12.7338C0.625 14.1148 1.744 15.2338 3.125 15.2338H12.625C14.006 15.2338 15.125 14.1148 15.125 12.7338C15.125 11.3528 14.006 10.2338 12.625 10.2338Z" stroke="var(--stroke-0, #3FDBFF)" stroke-width="1.25" stroke-linecap="round" stroke-linejoin="round"/>
<path id="Vector_2" d="M3.125 13.4838C3.539 13.4838 3.875 13.1478 3.875 12.7338C3.875 12.3198 3.539 11.9838 3.125 11.9838C2.711 11.9838 2.375 12.3198 2.375 12.7338C2.375 13.1478 2.711 13.4838 3.125 13.4838Z" fill="var(--fill-0, #3FDBFF)"/>
<path id="Vector_3" d="M5.625 13.4838C6.039 13.4838 6.375 13.1478 6.375 12.7338C6.375 12.3198 6.039 11.9838 5.625 11.9838C5.211 11.9838 4.875 12.3198 4.875 12.7338C4.875 13.1478 5.211 13.4838 5.625 13.4838Z" fill="var(--fill-0, #3FDBFF)"/>
<path id="Vector_4" d="M10.625 5.7338C11.591 5.7338 12.375 4.9498 12.375 3.9838C12.375 3.0178 11.591 2.2338 10.625 2.2338C9.659 2.2338 8.875 3.0178 8.875 3.9838C8.875 4.9498 9.659 5.7338 10.625 5.7338Z" stroke="var(--stroke-0, #3FDBFF)" stroke-width="1.25" stroke-linecap="round" stroke-linejoin="round"/>
<path id="Vector_5" d="M7.26623 0.625C5.41223 2.479 5.41223 5.4885 7.26623 7.3425" stroke="var(--stroke-0, #3FDBFF)" stroke-width="1.25" stroke-linecap="round" stroke-linejoin="round"/>
<path id="Vector_6" d="M13.9838 7.3426C15.8378 5.4886 15.8378 2.4791 13.9838 0.6251" stroke="var(--stroke-0, #3FDBFF)" stroke-width="1.25" stroke-linecap="round" stroke-linejoin="round"/>
<path id="Vector_7" d="M10.625 5.7338V10.2338" stroke="var(--stroke-0, #3FDBFF)" stroke-width="1.25" stroke-linecap="round" stroke-linejoin="round"/>
</g>
</svg>
